<?xml version="1.0" standalone="no"?>
<!DOCTYPE svg PUBLIC "-//W3C//DTD SVG 20010904//EN"
 "http://www.w3.org/TR/2001/REC-SVG-20010904/DTD/svg10.dtd">
<svg version="1.0" xmlns="http://www.w3.org/2000/svg"
 width="1024.000000pt" height="1024.000000pt" viewBox="0 0 1024.000000 1024.000000"
 preserveAspectRatio="xMidYMid meet">

<g transform="translate(0.000000,1024.000000) scale(0.100000,-0.100000)"
fill="#2563EB" stroke="none">
<path d="M5035 9540 c-60 -24 -127 -84 -156 -143 -30 -58 -37 -159 -15 -225
23 -67 84 -134 154 -169 48 -23 69 -28 132 -27 121 2 210 54 265 155 26 47 29
64 30 134 0 67 -4 88 -27 131 -28 54 -86 112 -140 140 -51 27 -180 29 -243 4z"/>
<path d="M3526 9089 c-269 -35 -600 -145 -876 -291 -134 -71 -340 -197 -424
-261 l-58 -44 -113 121 c-224 241 -303 299 -430 312 -250 26 -472 -224 -410
-461 25 -95 69 -157 231 -324 l152 -156 -30 -35 c-57 -66 -206 -300 -261 -407
-208 -407 -306 -903 -268 -1363 27 -322 83 -501 210 -670 67 -89 244 -259 374
-359 60 -46 105 -87 100 -91 -4 -4 -44 -33 -88 -65 -105 -76 -248 -221 -312
-315 -188 -279 -285 -627 -286 -1020 -1 -518 164 -982 520 -1462 l64 -87 -98
-93 c-166 -156 -212 -209 -251 -287 -33 -66 -37 -83 -36 -150 1 -308 381 -468
637 -269 28 23 102 93 163 156 l111 116 95 -61 c446 -289 928 -433 1450 -433
353 0 673 78 907 222 66 41 134 100 303 267 l219 215 212 -211 c116 -115 233
-224 258 -241 228 -153 617 -252 992 -252 473 0 983 166 1419 461 31 22 60 39
64 39 4 0 73 -65 153 -144 163 -160 222 -198 336 -216 209 -33 406 107 433
310 13 94 -4 166 -57 244 -26 37 -164 178 -288 292 l-43 39 51 65 c286 364
490 857 538 1302 38 350 -29 728 -185 1041 -104 209 -213 334 -431 496 l-73
53 68 51 c119 88 230 187 335 298 162 169 223 295 270 554 19 105 22 156 22
405 0 309 -8 384 -65 625 -75 316 -226 640 -417 898 l-65 88 143 147 c91 93
158 171 181 211 115 199 42 434 -170 538 -71 36 -82 38 -166 38 -81 -1 -99 -4
-160 -33 -56 -26 -90 -54 -190 -154 -67 -68 -143 -147 -168 -176 l-47 -53 -58
44 c-192 146 -500 314 -748 407 -232 87 -435 128 -670 137 -400 15 -718 -70
-982 -262 -43 -31 -175 -155 -294 -274 l-215 -216 -90 97 c-119 131 -350 350
-438 417 -91 70 -265 153 -386 185 -187 50 -472 69 -664 45z m-133 -484 c303
-45 643 -244 992 -578 275 -262 437 -547 530 -930 61 -253 80 -480 90 -1090 6
-343 5 -358 -12 -348 -10 5 -607 600 -1328 1321 l-1310 1311 30 25 c97 81 282
185 410 232 70 25 172 52 255 65 61 10 253 6 343 -8z m3858 0 c118 -20 196
-47 334 -115 108 -53 280 -165 280 -182 0 -8 -165 -176 -1584 -1606 -580 -584
-1056 -1060 -1059 -1058 -6 7 17 740 29 901 59 799 359 1343 987 1790 205 147
459 252 667 278 78 10 271 6 346 -8z m1255 -877 c104 -155 184 -348 221 -532
22 -111 22 -334 -1 -449 -119 -611 -677 -1160 -1426 -1402 -308 -99 -614 -135
-1166 -135 l-290 0 420 417 c232 230 817 812 1301 1295 484 483 883 878 886
878 4 0 28 -33 55 -72z m-6498 -145 c412 -397 1059 -1029 1502 -1467 245 -243
551 -546 680 -673 l235 -233 -325 0 c-736 0 -1088 60 -1505 259 -432 206 -807
556 -976 908 -177 370 -174 800 8 1163 41 81 150 249 162 250 2 0 101 -93 219
-207z m2430 -2638 c3 -3 -111 -124 -254 -268 -1895 -1912 -2359 -2377 -2368
-2374 -22 7 -126 164 -175 262 -102 208 -144 392 -145 635 -1 138 3 182 22
269 69 306 197 532 452 795 181 188 330 301 555 424 257 141 581 235 915 266
66 6 991 -2 998 -9z m2457 -4 c568 -82 1012 -302 1385 -688 326 -337 487 -721
466 -1115 -13 -264 -100 -514 -259 -753 -33 -49 -62 -92 -64 -94 -3 -4 -1203
1188 -2218 2204 l-450 450 80 6 c139 10 974 2 1060 -10z m985 -3150 c0 -13
-232 -118 -330 -150 -487 -156 -1018 -52 -1480 290 -108 80 -360 331 -432 429
-173 237 -270 463 -333 775 -50 247 -70 501 -80 1025 l-6 305 1330 -1334 c732
-733 1331 -1336 1331 -1340z m-2880 2308 c-11 -398 -17 -503 -36 -670 -48
-430 -167 -775 -362 -1049 -37 -52 -125 -154 -197 -228 -464 -480 -1073 -684
-1632 -546 -153 37 -433 150 -433 173 0 6 3 11 8 11 4 0 603 596 1332 1325
728 728 1325 1323 1327 1322 1 -2 -2 -154 -7 -338z"/>
<path d="M770 5361 c-97 -30 -181 -110 -206 -199 -72 -248 164 -461 392 -353
109 51 164 142 164 271 0 128 -81 237 -204 275 -53 16 -105 18 -146 6z"/>
<path d="M9313 5352 c-125 -45 -196 -142 -196 -272 0 -81 27 -148 86 -208 66
-69 108 -87 202 -87 69 0 86 4 125 27 105 62 155 149 155 268 -1 57 -6 86 -23
122 -62 128 -221 196 -349 150z"/>
<path d="M5034 1181 c-93 -24 -161 -78 -206 -164 -32 -60 -32 -184 0 -244 115
-218 419 -218 534 0 33 62 32 184 -2 250 -29 58 -86 112 -145 138 -49 22 -137
31 -181 20z"/>
</g>
</svg>
